<svg width="196" height="34" viewBox="0 0 196 34" fill="none" xmlns="http://www.w3.org/2000/svg">
    <path d="M13.932 7.956C17.196 7.956 19.596 8.61599 21.132 9.936C22.692 11.256 23.472 12.984 23.472 15.12C23.472 15.84 23.376 16.644 23.184 17.532C22.728 19.5 21.876 21.228 20.628 22.716C19.38 24.18 17.844 25.32 16.02 26.136C14.22 26.928 12.264 27.324 10.152 27.324C6.81599 27.324 4.34399 26.664 2.73599 25.344C1.15199 24 0.359985 22.224 0.359985 20.016C0.359985 19.272 0.455985 18.444 0.647985 17.532C1.10399 15.66 1.96799 14.004 3.23999 12.564C4.53599 11.1 6.10799 9.972 7.95599 9.18C9.82799 8.364 11.82 7.956 13.932 7.956ZM13.824 11.16C13.32 11.16 12.78 11.616 12.204 12.528C11.652 13.416 10.992 15.108 10.224 17.604C9.45599 20.1 9.07199 21.852 9.07199 22.86C9.07199 23.388 9.15599 23.748 9.32399 23.94C9.49199 24.108 9.71999 24.192 10.008 24.192C10.512 24.24 11.028 23.808 11.556 22.896C12.108 21.984 12.792 20.208 13.608 17.568C14.352 15.24 14.724 13.548 14.724 12.492C14.724 11.988 14.64 11.64 14.472 11.448C14.328 11.256 14.112 11.16 13.824 11.16Z" fill="black"/>
</svg>